<?xml version="1.0" encoding="UTF-8"?>
<svg id="Capa_1" data-name="Capa 1" xmlns="http://www.w3.org/2000/svg" xmlns:xlink="http://www.w3.org/1999/xlink" viewBox="0 0 150 75">
  <defs>
    <style>
      .cls-1, .cls-2 {
        fill: #fff;
      }

      .cls-3, .cls-4 {
        fill: none;
      }

      .cls-5 {
        fill: #0c5043;
      }

      .cls-4 {
        clip-path: url(#clippath);
      }

      .cls-2 {
        font-family: CascadiaCode-Regular, 'Cascadia Code';
        font-size: 18.4px;
        font-variation-settings: 'wght' 400;
        letter-spacing: .02em;
        stroke: #fff;
        stroke-miterlimit: 10;
        stroke-width: .25px;
      }
    </style>
    <clipPath id="clippath">
      <rect class="cls-3" x="2.11" y="20.83" width="146.6" height="33.02"/>
    </clipPath>
  </defs>
  <g class="cls-4">
    <g>
      <rect class="cls-5" x="-10.71" y="17.18" width="162.34" height="44.94"/>
      <g>
        <rect class="cls-1" x="3.17" y="25.13" width="27.7" height="26.9" rx="3" ry="3"/>
        <path class="cls-5" d="m8.34,33.01c-.03,1.69-.03,3.35-.01,4.98-.89.72-1.78,1.44-2.67,2.16v-9.11c0-2.05,1.41-3.86,3.41-4.29.68-.15,1.18-.12,1.18-.12.86-.04,1.57.19,2.14.54,1.28.76,2.01,2.18,2.03,3.66l.04,3.26c2.97-.03,5.95-.06,8.92-.09.19.03,1.39-.05,1.88-.46,1.26-1.03.96-2.66.94-2.77-.02-.14-.28-1.34-1.62-1.69-.08-.02-.16-.04-.24-.05-1.07-.14-1.99.8-1.95,1.88l.05,1.93-2.66.04-.03-2.01c-.02-1.48.77-2.87,2.07-3.57,3.31-1.78,5.6.93,5.6.93,1.32,1.57,1.59,3.76.7,5.57-.84,1.72-2.6,2.83-4.54,2.87-4,.08-7.99.15-11.99.23.1-2.88.09-5.07.02-6.1-.01-.2-.05-.65-.36-1.04-.47-.6-1.26-.62-1.3-.62-.21,0-.41.04-.58.1-.59.22-.97.8-.99,1.43-.02.78-.04,1.56-.05,2.35Z"/>
        <path class="cls-5" d="m25.8,43.32c.03-1.69.03-3.35.01-4.98.89-.72,1.78-1.44,2.67-2.16v9.11c0,2.05-1.41,3.86-3.41,4.29-.68.15-1.18.12-1.18.12-.86.04-1.57-.19-2.14-.54-1.28-.76-2.01-2.18-2.03-3.66l-.04-3.26c-2.97.03-5.95.06-8.92.09-.19-.03-1.39.05-1.88.46-1.26,1.03-.96,2.66-.94,2.77.02.14.28,1.34,1.62,1.69.08.02.16.04.24.05,1.07.14,1.99-.8,1.95-1.88l-.05-1.93,2.66-.04.03,2.01c.02,1.48-.77,2.87-2.07,3.57-3.31,1.78-5.6-.93-5.6-.93-1.32-1.57-1.59-3.76-.7-5.57.84-1.72,2.6-2.83,4.54-2.87,4-.08,7.99-.15,11.99-.23-.1,2.88-.09,5.07-.02,6.1.01.2.05.65.36,1.04.47.6,1.26.62,1.3.62.21,0,.41-.04.58-.1.59-.22.97-.8.99-1.43.02-.78.04-1.56.05-2.35Z"/>
        <rect class="cls-3" x="-8.51" y="17.18" width="161.98" height="44.58"/>
        <text class="cls-2" transform="translate(36.48 50.1) scale(.9 1.72)"><tspan x="0" y="0">HOMETHREADS</tspan></text>
      </g>
    </g>
  </g>
</svg>